<svg width="1264" height="534" viewBox="0 0 1264 534" fill="none" xmlns="http://www.w3.org/2000/svg">
<rect y="3" width="1261.66" height="529.67" fill="url(#paint0_radial_609_5)" fill-opacity="0.3"/>
<line x1="1.03584" y1="3" x2="1.03584" y2="531.28" stroke="#CCCCCC" stroke-opacity="0.87" stroke-width="2.07169"/>
<line x1="1262.04" y1="0.99872" x2="1262.69" y2="532.668" stroke="#CCCCCC" stroke-opacity="0.87" stroke-width="2.07169"/>
<line y1="531.636" x2="1261.66" y2="531.636" stroke="#CCCCCC" stroke-opacity="0.87" stroke-width="2.07169"/>
<line x1="1" y1="1.96416" x2="1262.66" y2="1.96416" stroke="#CCCCCC" stroke-opacity="0.87" stroke-width="2.07169"/>
<line x1="1262.04" y1="1" x2="1262.04" y2="265.835" stroke="#003CFF" stroke-width="2.07169"/>
<line x1="1.03584" y1="268" x2="1.03584" y2="532.835" stroke="#003CFF" stroke-width="2.07169"/>
<line x1="1261.63" y1="2.03584" x2="1052" y2="2.03584" stroke="#003CFF" stroke-width="2.07169"/>
<line x1="210.629" y1="532.036" x2="0.999771" y2="532.036" stroke="#003CFF" stroke-width="2.07169"/>
<path d="M997 1H1054V1C1054 3.76142 1051.76 6 1049 6H1002C999.239 6 997 3.76142 997 1V1Z" fill="white"/>
<path d="M208 533C208 530.239 210.239 528 213 528H260C262.761 528 265 530.239 265 533V533H208V533Z" fill="white"/>
<path d="M1263 229L1263.25 285.999V285.999C1260.49 286.012 1258.24 283.783 1258.23 281.022L1258.02 234.022C1258.01 231.261 1260.24 229.012 1263 229V229Z" fill="white"/>
<path d="M4.97699e-05 227.022C2.76145 227.01 5.00999 229.239 5.0223 232L5.23195 278.999C5.24427 281.761 3.0157 284.009 0.254304 284.022V284.022L4.97699e-05 227.022V227.022Z" fill="white"/>
<defs>
<radialGradient id="paint0_radial_609_5" cx="0" cy="0" r="1" gradientUnits="userSpaceOnUse" gradientTransform="translate(631.799 264.297) rotate(5.45451) scale(632.723 337.504)">
<stop stop-color="#1954EC"/>
<stop offset="0.0001" stop-color="#194FD9"/>
<stop offset="1" stop-color="#1D1D25"/>
</radialGradient>
</defs>
</svg>
